<?xml version="1.0" encoding="UTF-8"?>
<svg xmlns="http://www.w3.org/2000/svg" xmlns:xlink="http://www.w3.org/1999/xlink" width="186.302pt" height="129.206pt" viewBox="0 0 186.302 129.206">
<defs>
<g>
<g id="glyph-0-0">
<path d="M 0.421875 -3.390625 L 0.421875 -3.171875 C 0.484375 -3.171875 0.5625 -3.171875 0.640625 -3.171875 C 0.8125 -3.171875 0.96875 -3.140625 0.96875 -3 C 0.96875 -2.96875 0.96875 -2.9375 0.96875 -2.90625 L 0.96875 -0.484375 C 0.96875 -0.46875 0.96875 -0.4375 0.96875 -0.40625 C 0.96875 -0.25 0.8125 -0.21875 0.640625 -0.21875 C 0.5625 -0.21875 0.484375 -0.234375 0.421875 -0.234375 L 0.421875 0 L 0.9375 0 L 1.03125 -0.03125 L 1.6875 -0.03125 L 2.046875 0 L 2.046875 -0.234375 L 1.765625 -0.234375 C 1.625 -0.234375 1.5 -0.25 1.5 -0.421875 L 1.5 -1.5 L 2.265625 -1.5 C 2.359375 -1.5 2.4375 -1.5 2.53125 -1.5 C 3.03125 -1.5 3.671875 -1.6875 3.921875 -2.171875 C 3.953125 -2.265625 3.96875 -2.359375 3.96875 -2.4375 C 3.96875 -3.15625 2.96875 -3.390625 2.4375 -3.390625 C 2.328125 -3.390625 2.21875 -3.390625 2.109375 -3.390625 Z M 1.46875 -1.703125 L 1.46875 -3 C 1.46875 -3.125 1.53125 -3.171875 1.65625 -3.171875 L 2.3125 -3.171875 C 2.765625 -3.171875 3.390625 -3.140625 3.390625 -2.421875 C 3.390625 -1.84375 2.90625 -1.734375 2.484375 -1.703125 Z M 1.46875 -1.703125 "/>
</g>
<g id="glyph-0-1">
<path d="M 3.109375 0.03125 C 3.203125 0.390625 3.375 0.953125 3.890625 0.953125 C 4.390625 0.953125 4.640625 0.421875 4.640625 0.03125 C 4.640625 -0.03125 4.625 -0.078125 4.5625 -0.078125 C 4.453125 -0.078125 4.484375 0.046875 4.453125 0.109375 C 4.375 0.28125 4.15625 0.359375 3.984375 0.375 L 3.9375 0.375 C 3.65625 0.375 3.5 0.15625 3.375 -0.046875 C 4.03125 -0.296875 4.609375 -0.875 4.609375 -1.6875 L 4.609375 -1.75 C 4.5625 -2.78125 3.5625 -3.5 2.53125 -3.5 C 1.5625 -3.5 0.484375 -2.84375 0.484375 -1.671875 C 0.484375 -0.53125 1.609375 0.109375 2.5625 0.109375 C 2.734375 0.109375 2.953125 0.09375 3.109375 0.03125 Z M 2.078125 -0.15625 C 1.765625 -0.28125 1.53125 -0.40625 1.34375 -0.65625 C 1.125 -0.953125 1.046875 -1.328125 1.046875 -1.6875 C 1.046875 -2.203125 1.21875 -2.6875 1.640625 -3.015625 C 1.90625 -3.21875 2.21875 -3.3125 2.546875 -3.3125 C 3.15625 -3.3125 3.734375 -2.953125 3.9375 -2.328125 C 4.015625 -2.109375 4.046875 -1.890625 4.046875 -1.671875 C 4.046875 -1.125 3.828125 -0.609375 3.328125 -0.296875 C 3.3125 -0.28125 3.28125 -0.25 3.25 -0.25 C 3.203125 -0.28125 3.140625 -0.40625 3.09375 -0.46875 C 2.953125 -0.640625 2.765625 -0.765625 2.546875 -0.765625 C 2.28125 -0.765625 2.03125 -0.609375 2.03125 -0.3125 C 2.03125 -0.25 2.046875 -0.203125 2.078125 -0.15625 Z M 3.03125 -0.15625 C 2.875 -0.109375 2.703125 -0.078125 2.53125 -0.078125 C 2.390625 -0.078125 2.203125 -0.15625 2.203125 -0.34375 C 2.203125 -0.515625 2.390625 -0.59375 2.546875 -0.59375 C 2.796875 -0.59375 2.953125 -0.375 3.03125 -0.15625 Z M 3.03125 -0.15625 "/>
</g>
<g id="glyph-0-2">
<path d="M 0.421875 -3.390625 L 0.421875 -3.171875 C 0.484375 -3.171875 0.5625 -3.171875 0.640625 -3.171875 C 0.8125 -3.171875 0.96875 -3.140625 0.96875 -3 C 0.96875 -2.96875 0.96875 -2.9375 0.96875 -2.90625 L 0.96875 -0.484375 C 0.96875 -0.46875 0.96875 -0.4375 0.96875 -0.40625 C 0.96875 -0.25 0.8125 -0.21875 0.640625 -0.21875 C 0.5625 -0.21875 0.484375 -0.234375 0.421875 -0.234375 L 0.421875 0 L 0.9375 0 L 1.03125 -0.03125 L 1.671875 -0.03125 L 2.03125 0 L 2.03125 -0.234375 L 1.875 -0.234375 C 1.84375 -0.234375 1.78125 -0.21875 1.75 -0.21875 C 1.609375 -0.21875 1.46875 -0.25 1.46875 -0.421875 L 1.46875 -1.609375 L 2.296875 -1.609375 C 2.546875 -1.609375 2.828125 -1.515625 2.984375 -1.328125 C 3.0625 -1.21875 3.078125 -1.09375 3.078125 -0.953125 L 3.078125 -0.859375 C 3.078125 -0.796875 3.078125 -0.734375 3.078125 -0.671875 C 3.078125 -0.25 3.296875 0.03125 3.890625 0.09375 C 3.9375 0.109375 3.984375 0.109375 4.03125 0.109375 C 4.328125 0.109375 4.609375 -0.078125 4.640625 -0.453125 C 4.640625 -0.5 4.640625 -0.578125 4.53125 -0.578125 C 4.40625 -0.578125 4.421875 -0.359375 4.375 -0.25 C 4.296875 -0.15625 4.203125 -0.0625 4.0625 -0.0625 C 3.65625 -0.0625 3.65625 -0.640625 3.609375 -0.9375 C 3.578125 -1.265625 3.484375 -1.453125 3.234375 -1.578125 C 3.15625 -1.640625 3.0625 -1.671875 2.96875 -1.6875 C 3.046875 -1.734375 3.125 -1.75 3.203125 -1.765625 C 3.5 -1.890625 3.890625 -2.109375 3.890625 -2.46875 C 3.890625 -2.859375 3.46875 -3.125 3.109375 -3.25 C 2.875 -3.34375 2.609375 -3.375 2.359375 -3.390625 Z M 1.46875 -1.78125 L 1.46875 -3 C 1.46875 -3.140625 1.53125 -3.15625 1.65625 -3.171875 L 2.140625 -3.171875 C 2.609375 -3.171875 3.296875 -3.125 3.296875 -2.484375 C 3.296875 -1.953125 2.78125 -1.78125 2.21875 -1.78125 Z M 1.46875 -1.78125 "/>
</g>
<g id="glyph-0-3">
<path d="M 0.84375 -0.234375 L 0.859375 -0.234375 C 1.125 0.046875 1.65625 0.109375 1.984375 0.109375 C 2.578125 0.109375 3.234375 -0.25 3.234375 -0.90625 L 3.234375 -0.953125 C 3.203125 -1.390625 2.84375 -1.703125 2.453125 -1.84375 C 2.3125 -1.875 2.15625 -1.90625 2.015625 -1.9375 C 1.875 -1.953125 1.734375 -1.984375 1.59375 -2.015625 C 1.296875 -2.0625 0.78125 -2.21875 0.78125 -2.640625 L 0.78125 -2.6875 C 0.84375 -3.125 1.34375 -3.28125 1.6875 -3.28125 C 2.171875 -3.28125 2.65625 -3.078125 2.8125 -2.53125 C 2.84375 -2.40625 2.8125 -2.265625 2.953125 -2.265625 C 3.03125 -2.265625 3.0625 -2.296875 3.0625 -2.359375 L 3.0625 -3.390625 C 3.0625 -3.453125 3.046875 -3.5 2.96875 -3.5 C 2.875 -3.5 2.71875 -3.21875 2.6875 -3.15625 C 2.59375 -3.21875 2.5 -3.296875 2.390625 -3.34375 C 2.171875 -3.453125 1.921875 -3.5 1.671875 -3.5 C 1.15625 -3.5 0.484375 -3.171875 0.484375 -2.5625 C 0.484375 -2.109375 0.859375 -1.8125 1.234375 -1.6875 C 1.5 -1.609375 1.78125 -1.578125 2.046875 -1.53125 C 2.203125 -1.5 2.359375 -1.46875 2.5 -1.40625 C 2.734375 -1.296875 2.921875 -1.078125 2.921875 -0.8125 C 2.921875 -0.3125 2.375 -0.125 1.96875 -0.125 C 1.453125 -0.125 0.828125 -0.296875 0.703125 -0.859375 C 0.703125 -0.90625 0.6875 -0.953125 0.6875 -1.015625 L 0.6875 -1.046875 C 0.6875 -1.109375 0.65625 -1.140625 0.59375 -1.140625 C 0.515625 -1.140625 0.484375 -1.109375 0.484375 -1.046875 L 0.484375 0.015625 C 0.484375 0.046875 0.5 0.109375 0.5625 0.109375 C 0.640625 0.109375 0.671875 0.015625 0.71875 -0.046875 C 0.765625 -0.109375 0.8125 -0.171875 0.84375 -0.234375 Z M 0.84375 -0.234375 "/>
</g>
<g id="glyph-0-4">
<path d="M 0.359375 -0.234375 L 0.359375 0 L 0.609375 -0.015625 L 1.5625 -0.015625 L 1.5625 -0.234375 C 1.421875 -0.234375 1.203125 -0.28125 1.203125 -0.453125 C 1.203125 -0.484375 1.234375 -0.546875 1.25 -0.578125 L 1.34375 -0.8125 C 1.40625 -0.953125 1.4375 -1.109375 1.53125 -1.109375 L 3.015625 -1.109375 C 3.09375 -1.109375 3.109375 -1 3.140625 -0.9375 C 3.203125 -0.796875 3.265625 -0.640625 3.328125 -0.5 L 3.375 -0.390625 C 3.390625 -0.375 3.390625 -0.359375 3.390625 -0.34375 C 3.390625 -0.234375 3.1875 -0.234375 3.03125 -0.234375 L 2.96875 -0.234375 L 2.96875 0 L 3.484375 0 L 3.59375 -0.03125 L 4.171875 -0.03125 L 4.5 0 L 4.5 -0.234375 L 4.328125 -0.234375 C 4.203125 -0.234375 4.078125 -0.234375 4 -0.28125 C 3.9375 -0.34375 3.90625 -0.4375 3.890625 -0.5 C 3.484375 -1.453125 3.0625 -2.390625 2.640625 -3.328125 C 2.59375 -3.4375 2.578125 -3.546875 2.421875 -3.546875 C 2.265625 -3.546875 2.25 -3.4375 2.203125 -3.328125 L 1.921875 -2.671875 C 1.6875 -2.15625 1.46875 -1.625 1.234375 -1.09375 L 1.03125 -0.65625 C 1 -0.5625 0.953125 -0.46875 0.890625 -0.390625 C 0.765625 -0.25 0.546875 -0.234375 0.359375 -0.234375 Z M 1.578125 -1.328125 L 2.265625 -2.921875 L 2.96875 -1.328125 Z M 1.578125 -1.328125 "/>
</g>
<g id="glyph-0-5">
<path d="M 0.4375 -3.390625 L 0.4375 -3.171875 C 0.5 -3.171875 0.578125 -3.171875 0.65625 -3.171875 C 0.828125 -3.171875 0.984375 -3.140625 0.984375 -3 C 0.984375 -2.96875 0.984375 -2.9375 0.984375 -2.90625 L 0.984375 -0.484375 C 0.984375 -0.46875 0.984375 -0.4375 0.984375 -0.40625 C 0.984375 -0.25 0.8125 -0.21875 0.65625 -0.21875 C 0.5625 -0.21875 0.484375 -0.234375 0.4375 -0.234375 L 0.4375 0 L 2.28125 0 C 2.421875 0 2.546875 0 2.671875 0 C 3.171875 0 3.8125 -0.125 4.0625 -0.625 C 4.109375 -0.71875 4.140625 -0.8125 4.140625 -0.921875 C 4.140625 -1.4375 3.484375 -1.734375 2.984375 -1.765625 C 3.375 -1.859375 3.96875 -2.0625 3.96875 -2.53125 C 3.96875 -2.890625 3.640625 -3.15625 3.3125 -3.265625 C 3.046875 -3.359375 2.78125 -3.390625 2.5 -3.390625 Z M 1.46875 -1.671875 L 2.421875 -1.671875 C 2.484375 -1.671875 2.5625 -1.6875 2.640625 -1.6875 C 3.0625 -1.6875 3.578125 -1.421875 3.578125 -0.9375 C 3.578125 -0.453125 2.984375 -0.234375 2.578125 -0.234375 L 1.65625 -0.234375 C 1.546875 -0.234375 1.46875 -0.25 1.46875 -0.390625 Z M 1.46875 -1.84375 L 1.46875 -3 C 1.46875 -3.171875 1.578125 -3.171875 1.734375 -3.171875 L 1.765625 -3.171875 C 1.859375 -3.171875 1.953125 -3.171875 2.03125 -3.171875 L 2.53125 -3.171875 C 2.875 -3.171875 3.3125 -3.046875 3.40625 -2.65625 C 3.421875 -2.609375 3.421875 -2.578125 3.421875 -2.53125 C 3.421875 -2.09375 2.875 -1.84375 2.46875 -1.84375 Z M 1.46875 -1.84375 "/>
</g>
<g id="glyph-0-6">
<path d="M 3.796875 -3.046875 C 3.703125 -3.109375 3.625 -3.1875 3.515625 -3.25 C 3.28125 -3.390625 3 -3.484375 2.703125 -3.5 L 2.625 -3.5 C 1.75 -3.5 0.84375 -3.046875 0.546875 -2.140625 C 0.5 -2 0.484375 -1.875 0.484375 -1.734375 C 0.484375 -0.53125 1.640625 0.109375 2.640625 0.109375 C 3.328125 0.109375 4.171875 -0.28125 4.25 -1.09375 C 4.265625 -1.125 4.265625 -1.15625 4.265625 -1.171875 L 4.265625 -1.21875 C 4.25 -1.265625 4.203125 -1.28125 4.140625 -1.28125 C 4.09375 -1.28125 4.046875 -1.265625 4.046875 -1.1875 L 4.046875 -1.15625 C 4 -0.46875 3.328125 -0.125 2.703125 -0.125 C 2.125 -0.125 1.515625 -0.390625 1.25 -0.890625 C 1.125 -1.140625 1.0625 -1.40625 1.0625 -1.6875 C 1.0625 -2 1.125 -2.328125 1.296875 -2.59375 C 1.609375 -3.046875 2.171875 -3.265625 2.6875 -3.265625 C 3.328125 -3.265625 3.875 -2.859375 4.015625 -2.234375 C 4.03125 -2.140625 4.03125 -2.046875 4.15625 -2.046875 C 4.25 -2.046875 4.265625 -2.09375 4.265625 -2.15625 L 4.265625 -3.40625 C 4.265625 -3.453125 4.25 -3.5 4.1875 -3.5 C 4.09375 -3.5 4 -3.328125 3.9375 -3.25 C 3.890625 -3.1875 3.828125 -3.125 3.796875 -3.046875 Z M 3.796875 -3.046875 "/>
</g>
<g id="glyph-0-7">
<path d="M 0.421875 -3.390625 L 0.421875 -3.171875 C 0.484375 -3.171875 0.5625 -3.171875 0.640625 -3.171875 C 0.8125 -3.171875 0.96875 -3.140625 0.96875 -3 C 0.96875 -2.96875 0.96875 -2.9375 0.96875 -2.90625 L 0.96875 -0.484375 C 0.96875 -0.46875 0.96875 -0.4375 0.96875 -0.40625 C 0.96875 -0.25 0.8125 -0.21875 0.640625 -0.21875 C 0.5625 -0.21875 0.484375 -0.234375 0.421875 -0.234375 L 0.421875 0 L 2.09375 0 C 2.21875 0 2.359375 0 2.484375 0 C 3.046875 0 3.609375 -0.15625 4.015625 -0.5625 C 4.296875 -0.859375 4.484375 -1.25 4.484375 -1.65625 L 4.484375 -1.734375 C 4.4375 -2.578125 3.734375 -3.265625 2.875 -3.375 C 2.734375 -3.390625 2.609375 -3.390625 2.484375 -3.390625 C 2.34375 -3.390625 2.21875 -3.390625 2.078125 -3.390625 Z M 3.921875 -1.5625 C 3.890625 -1.234375 3.84375 -0.9375 3.625 -0.6875 C 3.328125 -0.328125 2.84375 -0.234375 2.390625 -0.234375 L 1.65625 -0.234375 C 1.53125 -0.234375 1.46875 -0.265625 1.46875 -0.390625 L 1.46875 -2.828125 C 1.46875 -2.875 1.46875 -2.921875 1.46875 -2.984375 C 1.46875 -3.15625 1.546875 -3.171875 1.671875 -3.171875 L 2.421875 -3.171875 C 2.828125 -3.171875 3.265625 -3.0625 3.5625 -2.765625 C 3.859375 -2.46875 3.921875 -2.046875 3.921875 -1.65625 C 3.921875 -1.625 3.921875 -1.59375 3.921875 -1.5625 Z M 3.921875 -1.5625 "/>
</g>
</g>
<clipPath id="clip-0">
<path clip-rule="nonzero" d="M 0.222656 84 L 74 84 L 74 128.417969 L 0.222656 128.417969 Z M 0.222656 84 "/>
</clipPath>
<clipPath id="clip-1">
<path clip-rule="nonzero" d="M 39 56 L 88 56 L 88 128.417969 L 39 128.417969 Z M 39 56 "/>
</clipPath>
<clipPath id="clip-2">
<path clip-rule="nonzero" d="M 0.222656 42 L 45 42 L 45 118 L 0.222656 118 Z M 0.222656 42 "/>
</clipPath>
<clipPath id="clip-3">
<path clip-rule="nonzero" d="M 109 0 L 185.386719 0 L 185.386719 34 L 109 34 Z M 109 0 "/>
</clipPath>
</defs>
<path fill="none" stroke-width="0.79701" stroke-linecap="butt" stroke-linejoin="miter" stroke="rgb(0%, 0%, 0%)" stroke-opacity="1" stroke-miterlimit="10" d="M -0.000842778 -0.00188851 L 56.693083 -0.00188851 L 56.693083 56.692037 L -0.000842778 56.692037 Z M -0.000842778 -0.00188851 " transform="matrix(0.993892, 0, 0, -0.993892, 13.969588, 115.267654)"/>
<path fill="none" stroke-width="0.79701" stroke-linecap="butt" stroke-linejoin="miter" stroke="rgb(50%, 50%, 50%)" stroke-opacity="1" stroke-dasharray="2.98883 2.98883" stroke-miterlimit="10" d="M 113.387008 -0.00188851 L 56.693083 -0.00188851 L 56.693083 56.692037 L 113.387008 56.692037 Z M 113.387008 -0.00188851 " transform="matrix(0.993892, 0, 0, -0.993892, 13.969588, 115.267654)"/>
<path fill="none" stroke-width="0.79701" stroke-linecap="butt" stroke-linejoin="miter" stroke="rgb(50%, 50%, 50%)" stroke-opacity="1" stroke-dasharray="2.98883 2.98883" stroke-miterlimit="10" d="M 113.387008 113.385962 L 56.693083 113.385962 L 56.693083 56.692037 L 113.387008 56.692037 Z M 113.387008 113.385962 " transform="matrix(0.993892, 0, 0, -0.993892, 13.969588, 115.267654)"/>
<path fill="none" stroke-width="0.79701" stroke-linecap="butt" stroke-linejoin="miter" stroke="rgb(50%, 50%, 50%)" stroke-opacity="1" stroke-dasharray="2.98883 2.98883" stroke-miterlimit="10" d="M 113.387008 113.385962 L 170.080933 113.385962 L 170.080933 56.692037 L 113.387008 56.692037 Z M 113.387008 113.385962 " transform="matrix(0.993892, 0, 0, -0.993892, 13.969588, 115.267654)"/>
<path fill-rule="nonzero" fill="rgb(89.99939%, 89.99939%, 89.99939%)" fill-opacity="1" stroke-width="0.120737" stroke-linecap="butt" stroke-linejoin="miter" stroke="rgb(50%, 50%, 50%)" stroke-opacity="1" stroke-miterlimit="10" d="M -0.000842778 14.174541 L 42.520584 -0.00188851 L 56.693083 42.519538 L 14.171656 56.692037 Z M -0.000842778 14.174541 " transform="matrix(0.993892, 0, 0, -0.993892, 13.969588, 115.267654)"/>
<path fill-rule="nonzero" fill="rgb(89.99939%, 89.99939%, 89.99939%)" fill-opacity="1" stroke-width="0.120737" stroke-linecap="butt" stroke-linejoin="miter" stroke="rgb(50%, 50%, 50%)" stroke-opacity="1" stroke-miterlimit="10" d="M 113.387008 14.174541 L 70.865581 -0.00188851 L 56.693083 42.519538 L 99.214509 56.692037 Z M 113.387008 14.174541 " transform="matrix(0.993892, 0, 0, -0.993892, 13.969588, 115.267654)"/>
<path fill-rule="nonzero" fill="rgb(89.99939%, 89.99939%, 89.99939%)" fill-opacity="1" stroke-width="0.120737" stroke-linecap="butt" stroke-linejoin="miter" stroke="rgb(50%, 50%, 50%)" stroke-opacity="1" stroke-miterlimit="10" d="M 113.387008 99.213463 L 70.865581 113.385962 L 56.693083 70.868466 L 99.214509 56.692037 Z M 113.387008 99.213463 " transform="matrix(0.993892, 0, 0, -0.993892, 13.969588, 115.267654)"/>
<path fill-rule="nonzero" fill="rgb(89.99939%, 89.99939%, 89.99939%)" fill-opacity="1" stroke-width="0.120737" stroke-linecap="butt" stroke-linejoin="miter" stroke="rgb(50%, 50%, 50%)" stroke-opacity="1" stroke-miterlimit="10" d="M 113.387008 99.213463 L 155.908434 113.385962 L 170.080933 70.868466 L 127.559507 56.692037 Z M 113.387008 99.213463 " transform="matrix(0.993892, 0, 0, -0.993892, 13.969588, 115.267654)"/>
<g clip-path="url(#clip-0)">
<path fill="none" stroke-width="1.19553" stroke-linecap="butt" stroke-linejoin="miter" stroke="rgb(0%, 39.608765%, 66.273499%)" stroke-opacity="1" stroke-miterlimit="10" d="M -0.000842778 14.174541 L 42.520584 -0.00188851 " transform="matrix(0.993892, 0, 0, -0.993892, 13.969588, 115.267654)"/>
</g>
<g clip-path="url(#clip-1)">
<path fill="none" stroke-width="1.19553" stroke-linecap="butt" stroke-linejoin="miter" stroke="rgb(65.098572%, 3.135681%, 23.922729%)" stroke-opacity="1" stroke-miterlimit="10" d="M 42.520584 -0.00188851 L 56.693083 42.519538 " transform="matrix(0.993892, 0, 0, -0.993892, 13.969588, 115.267654)"/>
</g>
<path fill="none" stroke-width="1.19553" stroke-linecap="butt" stroke-linejoin="miter" stroke="rgb(0%, 49.01886%, 34.118652%)" stroke-opacity="1" stroke-miterlimit="10" d="M 56.693083 42.519538 L 14.171656 56.692037 " transform="matrix(0.993892, 0, 0, -0.993892, 13.969588, 115.267654)"/>
<g clip-path="url(#clip-2)">
<path fill="none" stroke-width="1.19553" stroke-linecap="butt" stroke-linejoin="miter" stroke="rgb(59.606934%, 40.391541%, 64.704895%)" stroke-opacity="1" stroke-miterlimit="10" d="M 14.171656 56.692037 L -0.000842778 14.174541 " transform="matrix(0.993892, 0, 0, -0.993892, 13.969588, 115.267654)"/>
</g>
<path fill="none" stroke-width="1.19553" stroke-linecap="butt" stroke-linejoin="miter" stroke="rgb(0%, 49.01886%, 34.118652%)" stroke-opacity="1" stroke-miterlimit="10" d="M 56.693083 42.519538 L 99.214509 56.692037 " transform="matrix(0.993892, 0, 0, -0.993892, 13.969588, 115.267654)"/>
<path fill="none" stroke-width="1.19553" stroke-linecap="butt" stroke-linejoin="miter" stroke="rgb(59.606934%, 40.391541%, 64.704895%)" stroke-opacity="1" stroke-miterlimit="10" d="M 99.214509 56.692037 L 113.387008 99.213463 " transform="matrix(0.993892, 0, 0, -0.993892, 13.969588, 115.267654)"/>
<g clip-path="url(#clip-3)">
<path fill="none" stroke-width="1.19553" stroke-linecap="butt" stroke-linejoin="miter" stroke="rgb(0%, 39.608765%, 66.273499%)" stroke-opacity="1" stroke-miterlimit="10" d="M 113.387008 99.213463 L 155.908434 113.385962 " transform="matrix(0.993892, 0, 0, -0.993892, 13.969588, 115.267654)"/>
</g>
<path fill-rule="nonzero" fill="rgb(0%, 0%, 0%)" fill-opacity="1" d="M 15.453125 101.179688 C 15.453125 100.359375 14.789062 99.695312 13.96875 99.695312 C 13.148438 99.695312 12.484375 100.359375 12.484375 101.179688 C 12.484375 102 13.148438 102.667969 13.96875 102.667969 C 14.789062 102.667969 15.453125 102 15.453125 101.179688 Z M 15.453125 101.179688 "/>
<g fill="rgb(0%, 0%, 0%)" fill-opacity="1">
<use xlink:href="#glyph-0-0" x="6.017455" y="102.885744"/>
</g>
<path fill-rule="nonzero" fill="rgb(0%, 0%, 0%)" fill-opacity="1" d="M 57.714844 115.269531 C 57.714844 114.449219 57.050781 113.78125 56.230469 113.78125 C 55.410156 113.78125 54.746094 114.449219 54.746094 115.269531 C 54.746094 116.089844 55.410156 116.753906 56.230469 116.753906 C 57.050781 116.753906 57.714844 116.089844 57.714844 115.269531 Z M 57.714844 115.269531 "/>
<g fill="rgb(0%, 0%, 0%)" fill-opacity="1">
<use xlink:href="#glyph-0-1" x="53.685524" y="122.174212"/>
</g>
<path fill-rule="nonzero" fill="rgb(0%, 0%, 0%)" fill-opacity="1" d="M 71.800781 73.007812 C 71.800781 72.1875 71.136719 71.523438 70.316406 71.523438 C 69.496094 71.523438 68.832031 72.1875 68.832031 73.007812 C 68.832031 73.828125 69.496094 74.492188 70.316406 74.492188 C 71.136719 74.492188 71.800781 73.828125 71.800781 73.007812 Z M 71.800781 73.007812 "/>
<g fill="rgb(0%, 0%, 0%)" fill-opacity="1">
<use xlink:href="#glyph-0-2" x="73.813831" y="74.711879"/>
</g>
<path fill-rule="nonzero" fill="rgb(0%, 0%, 0%)" fill-opacity="1" d="M 29.542969 58.921875 C 29.542969 58.101562 28.875 57.433594 28.054688 57.433594 C 27.234375 57.433594 26.570312 58.101562 26.570312 58.921875 C 26.570312 59.742188 27.234375 60.40625 28.054688 60.40625 C 28.875 60.40625 29.542969 59.742188 29.542969 58.921875 Z M 29.542969 58.921875 "/>
<g fill="rgb(0%, 0%, 0%)" fill-opacity="1">
<use xlink:href="#glyph-0-3" x="26.200426" y="55.423411"/>
</g>
<g fill="rgb(0%, 0%, 0%)" fill-opacity="1">
<use xlink:href="#glyph-0-4" x="5.618904" y="122.174212"/>
</g>
<g fill="rgb(0%, 0%, 0%)" fill-opacity="1">
<use xlink:href="#glyph-0-5" x="73.813831" y="122.174212"/>
</g>
<g fill="rgb(0%, 0%, 0%)" fill-opacity="1">
<use xlink:href="#glyph-0-6" x="73.813831" y="55.423411"/>
</g>
<g fill="rgb(0%, 0%, 0%)" fill-opacity="1">
<use xlink:href="#glyph-0-7" x="5.501625" y="55.423411"/>
</g>
</svg>
