<?xml version="1.0" encoding="UTF-8"?>
<svg xmlns="http://www.w3.org/2000/svg" xmlns:xlink="http://www.w3.org/1999/xlink" width="109.433pt" height="69.011pt" viewBox="0 0 109.433 69.011">
<defs>
<g>
<g id="glyph-0-0">
<path d="M 4.625 -3.703125 C 4.640625 -3.765625 4.65625 -3.8125 4.65625 -3.875 C 4.65625 -4.046875 4.546875 -4.140625 4.375 -4.140625 C 4.28125 -4.140625 4.015625 -4.078125 3.96875 -3.71875 C 3.796875 -4.09375 3.453125 -4.34375 3.0625 -4.34375 C 1.9375 -4.34375 0.71875 -2.96875 0.71875 -1.546875 C 0.71875 -0.578125 1.3125 0 2.03125 0 C 2.609375 0 3.0625 -0.46875 3.171875 -0.5625 C 2.96875 0.3125 2.84375 0.71875 2.84375 0.734375 C 2.8125 0.828125 2.484375 1.796875 1.4375 1.796875 C 1.25 1.796875 0.921875 1.78125 0.65625 1.703125 C 0.9375 1.609375 1.046875 1.359375 1.046875 1.1875 C 1.046875 1.03125 0.9375 0.84375 0.671875 0.84375 C 0.46875 0.84375 0.140625 1.015625 0.140625 1.421875 C 0.140625 1.8125 0.515625 2.015625 1.453125 2.015625 C 2.6875 2.015625 3.390625 1.25 3.53125 0.65625 Z M 3.34375 -1.265625 C 3.296875 -1 3.0625 -0.75 2.84375 -0.5625 C 2.640625 -0.390625 2.34375 -0.21875 2.046875 -0.21875 C 1.5625 -0.21875 1.421875 -0.734375 1.421875 -1.125 C 1.421875 -1.59375 1.703125 -2.75 1.96875 -3.25 C 2.234375 -3.734375 2.65625 -4.125 3.0625 -4.125 C 3.71875 -4.125 3.859375 -3.328125 3.859375 -3.28125 C 3.859375 -3.234375 3.828125 -3.171875 3.828125 -3.140625 Z M 3.34375 -1.265625 "/>
</g>
<g id="glyph-1-0">
<path d="M 3.6875 -0.0625 C 4.90625 -0.5 6.140625 -1.84375 6.140625 -3.375 C 6.140625 -4.671875 5.25 -5.53125 3.984375 -5.53125 C 2.15625 -5.53125 0.40625 -3.71875 0.40625 -1.96875 C 0.40625 -0.75 1.25 0.171875 2.5625 0.171875 C 2.78125 0.171875 3.046875 0.140625 3.359375 0.0625 C 3.359375 0.15625 3.34375 0.453125 3.34375 0.515625 C 3.34375 0.828125 3.34375 1.53125 4.0625 1.53125 C 5 1.53125 5.4375 0.140625 5.4375 0 C 5.4375 -0.0625 5.390625 -0.109375 5.328125 -0.109375 C 5.25 -0.109375 5.21875 -0.03125 5.203125 -0.015625 C 5.046875 0.515625 4.59375 0.734375 4.265625 0.734375 C 3.984375 0.734375 3.796875 0.625 3.6875 -0.0625 Z M 2.0625 -0.1875 C 1.453125 -0.421875 1.140625 -0.984375 1.140625 -1.75 C 1.140625 -2.28125 1.328125 -3.3125 1.953125 -4.171875 C 2.46875 -4.859375 3.234375 -5.296875 3.921875 -5.296875 C 4.75 -5.296875 5.40625 -4.703125 5.40625 -3.59375 C 5.40625 -3.1875 5.25 -1.25 3.640625 -0.34375 C 3.546875 -0.796875 3.390625 -1.1875 2.875 -1.1875 C 2.421875 -1.1875 2.03125 -0.78125 2.03125 -0.390625 C 2.03125 -0.3125 2.046875 -0.25 2.0625 -0.1875 Z M 3.375 -0.234375 C 3.203125 -0.15625 2.921875 -0.078125 2.625 -0.078125 C 2.53125 -0.078125 2.25 -0.078125 2.25 -0.390625 C 2.25 -0.65625 2.53125 -0.96875 2.890625 -0.96875 C 3.234375 -0.96875 3.359375 -0.75 3.375 -0.234375 Z M 3.375 -0.234375 "/>
</g>
</g>
<clipPath id="clip-0">
<path clip-rule="nonzero" d="M 105 30 L 108.378906 30 L 108.378906 38 L 105 38 Z M 105 30 "/>
</clipPath>
</defs>
<path fill="none" stroke-width="1.19553" stroke-linecap="butt" stroke-linejoin="miter" stroke="rgb(87.841797%, 61.959839%, 35.293579%)" stroke-opacity="1" stroke-miterlimit="10" d="M -47.450673 0.00189542 L 47.452676 0.00189542 " transform="matrix(0.985871, 0, 0, -0.985871, 54.436513, 34.017494)"/>
<g clip-path="url(#clip-0)">
<g fill="rgb(87.841797%, 61.959839%, 35.293579%)" fill-opacity="1">
<use xlink:href="#glyph-0-0" x="105.553946" y="35.176878"/>
</g>
</g>
<path fill-rule="nonzero" fill="rgb(87.841797%, 61.959839%, 35.293579%)" fill-opacity="1" d="M 19.390625 34.015625 C 19.390625 33.277344 18.789062 32.679688 18.050781 32.679688 C 17.3125 32.679688 16.710938 33.277344 16.710938 34.015625 C 16.710938 34.757812 17.3125 35.355469 18.050781 35.355469 C 18.789062 35.355469 19.390625 34.757812 19.390625 34.015625 Z M 19.390625 34.015625 "/>
<path fill="none" stroke-width="0.79701" stroke-linecap="butt" stroke-linejoin="miter" stroke="rgb(87.841797%, 61.959839%, 35.293579%)" stroke-opacity="1" stroke-miterlimit="10" d="M -36.907177 0.00189542 L -27.16009 0.00189542 " transform="matrix(0.985871, 0, 0, -0.985871, 54.436513, 34.017494)"/>
<path fill="none" stroke-width="0.79701" stroke-linecap="round" stroke-linejoin="round" stroke="rgb(87.841797%, 61.959839%, 35.293579%)" stroke-opacity="1" stroke-miterlimit="10" d="M -2.550761 3.112246 C -2.083218 1.246036 -1.045113 0.362458 0.000915767 0.00189542 C -1.045113 -0.36263 -2.083218 -1.246207 -2.550761 -3.112418 " transform="matrix(0.985871, 0, 0, -0.985871, 28.053785, 34.017494)"/>
<path fill-rule="nonzero" fill="rgb(87.841797%, 61.959839%, 35.293579%)" fill-opacity="1" d="M 31.519531 34.015625 C 31.519531 33.277344 30.917969 32.679688 30.179688 32.679688 C 29.441406 32.679688 28.839844 33.277344 28.839844 34.015625 C 28.839844 34.757812 29.441406 35.355469 30.179688 35.355469 C 30.917969 35.355469 31.519531 34.757812 31.519531 34.015625 Z M 31.519531 34.015625 "/>
<path fill="none" stroke-width="0.79701" stroke-linecap="butt" stroke-linejoin="miter" stroke="rgb(87.841797%, 61.959839%, 35.293579%)" stroke-opacity="1" stroke-miterlimit="10" d="M -24.604451 0.00189542 L -14.857363 0.00189542 " transform="matrix(0.985871, 0, 0, -0.985871, 54.436513, 34.017494)"/>
<path fill="none" stroke-width="0.79701" stroke-linecap="round" stroke-linejoin="round" stroke="rgb(87.841797%, 61.959839%, 35.293579%)" stroke-opacity="1" stroke-miterlimit="10" d="M -2.550665 3.112246 C -2.083121 1.246036 -1.045017 0.362458 0.00101196 0.00189542 C -1.045017 -0.36263 -2.083121 -1.246207 -2.550665 -3.112418 " transform="matrix(0.985871, 0, 0, -0.985871, 40.182596, 34.017494)"/>
<path fill-rule="nonzero" fill="rgb(87.841797%, 61.959839%, 35.293579%)" fill-opacity="1" d="M 43.648438 34.015625 C 43.648438 33.277344 43.046875 32.679688 42.308594 32.679688 C 41.566406 32.679688 40.96875 33.277344 40.96875 34.015625 C 40.96875 34.757812 41.566406 35.355469 42.308594 35.355469 C 43.046875 35.355469 43.648438 34.757812 43.648438 34.015625 Z M 43.648438 34.015625 "/>
<path fill="none" stroke-width="0.79701" stroke-linecap="butt" stroke-linejoin="miter" stroke="rgb(87.841797%, 61.959839%, 35.293579%)" stroke-opacity="1" stroke-miterlimit="10" d="M -12.301725 0.00189542 L -2.554637 0.00189542 " transform="matrix(0.985871, 0, 0, -0.985871, 54.436513, 34.017494)"/>
<path fill="none" stroke-width="0.79701" stroke-linecap="round" stroke-linejoin="round" stroke="rgb(87.841797%, 61.959839%, 35.293579%)" stroke-opacity="1" stroke-miterlimit="10" d="M -2.550308 3.112246 C -2.082765 1.246036 -1.044661 0.362458 0.00136816 0.00189542 C -1.044661 -0.36263 -2.082765 -1.246207 -2.550308 -3.112418 " transform="matrix(0.985871, 0, 0, -0.985871, 52.311151, 34.017494)"/>
<path fill-rule="nonzero" fill="rgb(87.841797%, 61.959839%, 35.293579%)" fill-opacity="1" d="M 55.777344 34.015625 C 55.777344 33.277344 55.175781 32.679688 54.4375 32.679688 C 53.695312 32.679688 53.097656 33.277344 53.097656 34.015625 C 53.097656 34.757812 53.695312 35.355469 54.4375 35.355469 C 55.175781 35.355469 55.777344 34.757812 55.777344 34.015625 Z M 55.777344 34.015625 "/>
<path fill="none" stroke-width="0.79701" stroke-linecap="butt" stroke-linejoin="miter" stroke="rgb(87.841797%, 61.959839%, 35.293579%)" stroke-opacity="1" stroke-miterlimit="10" d="M 0.00100164 0.00189542 L 9.748089 0.00189542 " transform="matrix(0.985871, 0, 0, -0.985871, 54.436513, 34.017494)"/>
<path fill="none" stroke-width="0.79701" stroke-linecap="round" stroke-linejoin="round" stroke="rgb(87.841797%, 61.959839%, 35.293579%)" stroke-opacity="1" stroke-miterlimit="10" d="M -2.549902 3.112246 C -2.086321 1.246036 -1.044255 0.362458 0.00177435 0.00189542 C -1.044255 -0.36263 -2.086321 -1.246207 -2.549902 -3.112418 " transform="matrix(0.985871, 0, 0, -0.985871, 64.439657, 34.017494)"/>
<path fill-rule="nonzero" fill="rgb(87.841797%, 61.959839%, 35.293579%)" fill-opacity="1" d="M 67.90625 34.015625 C 67.90625 33.277344 67.304688 32.679688 66.566406 32.679688 C 65.824219 32.679688 65.226562 33.277344 65.226562 34.015625 C 65.226562 34.757812 65.824219 35.355469 66.566406 35.355469 C 67.304688 35.355469 67.90625 34.757812 67.90625 34.015625 Z M 67.90625 34.015625 "/>
<path fill="none" stroke-width="0.79701" stroke-linecap="butt" stroke-linejoin="miter" stroke="rgb(87.841797%, 61.959839%, 35.293579%)" stroke-opacity="1" stroke-miterlimit="10" d="M 12.303728 0.00189542 L 22.050815 0.00189542 " transform="matrix(0.985871, 0, 0, -0.985871, 54.436513, 34.017494)"/>
<path fill="none" stroke-width="0.79701" stroke-linecap="round" stroke-linejoin="round" stroke="rgb(87.841797%, 61.959839%, 35.293579%)" stroke-opacity="1" stroke-miterlimit="10" d="M -2.549556 3.112246 C -2.085975 1.246036 -1.047871 0.362458 -0.00184168 0.00189542 C -1.047871 -0.36263 -2.085975 -1.246207 -2.549556 -3.112418 " transform="matrix(0.985871, 0, 0, -0.985871, 76.568222, 34.017494)"/>
<path fill="none" stroke-width="0.79701" stroke-linecap="butt" stroke-linejoin="miter" stroke="rgb(50%, 50%, 50%)" stroke-opacity="1" stroke-miterlimit="10" d="M -24.604451 17.574388 L -14.857363 17.574388 " transform="matrix(0.985871, 0, 0, -0.985871, 54.436513, 34.017494)"/>
<path fill="none" stroke-width="0.79701" stroke-linecap="round" stroke-linejoin="round" stroke="rgb(50%, 50%, 50%)" stroke-opacity="1" stroke-miterlimit="10" d="M -2.550415 3.109879 C -2.082871 1.243669 -1.044767 0.364054 0.00126196 -0.000471605 C -1.044767 -0.361035 -2.082871 -1.244612 -2.550415 -3.110823 " transform="matrix(0.985871, 0, 0, -0.985871, 40.18235, 16.690941)"/>
<g fill="rgb(50%, 50%, 50%)" fill-opacity="1">
<use xlink:href="#glyph-1-0" x="26.89718" y="10.827826"/>
</g>
</svg>
