<?xml version="1.0" encoding="UTF-8"?>
<svg xmlns="http://www.w3.org/2000/svg" xmlns:xlink="http://www.w3.org/1999/xlink" width="244.815pt" height="190.985pt" viewBox="0 0 244.815 190.985">
<defs>
<g>
<g id="glyph-0-0">
<path d="M 4.59375 -3.375 C 4.640625 -3.59375 4.75 -3.96875 4.75 -4.015625 C 4.75 -4.203125 4.609375 -4.296875 4.453125 -4.296875 C 4.34375 -4.296875 4.15625 -4.203125 4.09375 -4.015625 C 4.0625 -3.9375 3.59375 -2.046875 3.515625 -1.78125 C 3.453125 -1.484375 3.4375 -1.296875 3.4375 -1.125 C 3.4375 -1.015625 3.4375 -1 3.4375 -0.953125 C 3.21875 -0.421875 2.921875 -0.109375 2.53125 -0.109375 C 1.734375 -0.109375 1.734375 -0.84375 1.734375 -1.015625 C 1.734375 -1.328125 1.78125 -1.71875 2.25 -2.953125 C 2.359375 -3.25 2.421875 -3.390625 2.421875 -3.578125 C 2.421875 -4.03125 2.09375 -4.40625 1.609375 -4.40625 C 0.65625 -4.40625 0.28125 -2.953125 0.28125 -2.859375 C 0.28125 -2.765625 0.390625 -2.765625 0.40625 -2.765625 C 0.5 -2.765625 0.515625 -2.78125 0.5625 -2.953125 C 0.84375 -3.875 1.21875 -4.1875 1.578125 -4.1875 C 1.65625 -4.1875 1.828125 -4.171875 1.828125 -3.859375 C 1.828125 -3.609375 1.71875 -3.328125 1.640625 -3.15625 C 1.203125 -1.984375 1.078125 -1.515625 1.078125 -1.140625 C 1.078125 -0.234375 1.75 0.109375 2.5 0.109375 C 2.671875 0.109375 3.140625 0.109375 3.53125 -0.59375 C 3.796875 0.046875 4.484375 0.109375 4.78125 0.109375 C 5.53125 0.109375 5.96875 -0.515625 6.21875 -1.109375 C 6.5625 -1.890625 6.875 -3.21875 6.875 -3.703125 C 6.875 -4.25 6.609375 -4.40625 6.4375 -4.40625 C 6.1875 -4.40625 5.9375 -4.140625 5.9375 -3.921875 C 5.9375 -3.796875 6 -3.734375 6.09375 -3.65625 C 6.203125 -3.546875 6.453125 -3.28125 6.453125 -2.8125 C 6.453125 -2.46875 6.15625 -1.5 5.90625 -0.984375 C 5.640625 -0.453125 5.296875 -0.109375 4.8125 -0.109375 C 4.34375 -0.109375 4.078125 -0.40625 4.078125 -0.96875 C 4.078125 -1.25 4.140625 -1.5625 4.1875 -1.703125 Z M 4.59375 -3.375 "/>
</g>
<g id="glyph-0-1">
<path d="M 9.21875 -6.03125 C 9.3125 -6.390625 9.328125 -6.484375 10.078125 -6.484375 C 10.296875 -6.484375 10.390625 -6.484375 10.390625 -6.6875 C 10.390625 -6.796875 10.296875 -6.796875 10.125 -6.796875 L 8.8125 -6.796875 C 8.546875 -6.796875 8.546875 -6.796875 8.421875 -6.609375 L 4.78125 -0.9375 L 4.015625 -6.5625 C 3.984375 -6.796875 3.96875 -6.796875 3.703125 -6.796875 L 2.34375 -6.796875 C 2.15625 -6.796875 2.046875 -6.796875 2.046875 -6.609375 C 2.046875 -6.484375 2.125 -6.484375 2.328125 -6.484375 C 2.453125 -6.484375 2.640625 -6.484375 2.75 -6.46875 C 2.921875 -6.453125 2.96875 -6.421875 2.96875 -6.3125 C 2.96875 -6.265625 2.96875 -6.234375 2.9375 -6.125 L 1.671875 -1.0625 C 1.578125 -0.65625 1.40625 -0.34375 0.59375 -0.3125 C 0.546875 -0.3125 0.421875 -0.296875 0.421875 -0.125 C 0.421875 -0.03125 0.484375 0 0.5625 0 C 0.875 0 1.21875 -0.03125 1.546875 -0.03125 C 1.890625 -0.03125 2.25 0 2.578125 0 C 2.625 0 2.75 0 2.75 -0.203125 C 2.75 -0.3125 2.640625 -0.3125 2.578125 -0.3125 C 2.015625 -0.3125 1.90625 -0.515625 1.90625 -0.75 C 1.90625 -0.8125 1.90625 -0.859375 1.9375 -0.96875 L 3.296875 -6.40625 L 4.15625 -0.234375 C 4.1875 -0.109375 4.1875 0 4.3125 0 C 4.421875 0 4.484375 -0.109375 4.53125 -0.171875 L 8.546875 -6.484375 L 8.5625 -6.484375 L 7.140625 -0.78125 C 7.03125 -0.390625 7.015625 -0.3125 6.234375 -0.3125 C 6.0625 -0.3125 5.953125 -0.3125 5.953125 -0.125 C 5.953125 0 6.078125 0 6.09375 0 C 6.375 0 7.0625 -0.03125 7.328125 -0.03125 C 7.75 -0.03125 8.171875 0 8.578125 0 C 8.640625 0 8.765625 0 8.765625 -0.203125 C 8.765625 -0.3125 8.671875 -0.3125 8.484375 -0.3125 C 8.125 -0.3125 7.84375 -0.3125 7.84375 -0.484375 C 7.84375 -0.53125 7.84375 -0.546875 7.890625 -0.734375 Z M 9.21875 -6.03125 "/>
</g>
<g id="glyph-0-2">
<path d="M 1.78125 -1.140625 C 1.390625 -0.484375 1 -0.34375 0.5625 -0.3125 C 0.4375 -0.296875 0.34375 -0.296875 0.34375 -0.109375 C 0.34375 -0.046875 0.390625 0 0.484375 0 C 0.75 0 1.0625 -0.03125 1.328125 -0.03125 C 1.65625 -0.03125 2.015625 0 2.328125 0 C 2.390625 0 2.515625 0 2.515625 -0.1875 C 2.515625 -0.296875 2.421875 -0.3125 2.359375 -0.3125 C 2.125 -0.328125 1.890625 -0.40625 1.890625 -0.65625 C 1.890625 -0.78125 1.953125 -0.890625 2.03125 -1.03125 L 2.78125 -2.296875 L 5.28125 -2.296875 C 5.3125 -2.09375 5.4375 -0.734375 5.4375 -0.640625 C 5.4375 -0.34375 4.921875 -0.3125 4.734375 -0.3125 C 4.59375 -0.3125 4.484375 -0.3125 4.484375 -0.109375 C 4.484375 0 4.609375 0 4.625 0 C 5.03125 0 5.46875 -0.03125 5.875 -0.03125 C 6.125 -0.03125 6.75 0 7 0 C 7.0625 0 7.171875 0 7.171875 -0.203125 C 7.171875 -0.3125 7.078125 -0.3125 6.953125 -0.3125 C 6.328125 -0.3125 6.328125 -0.375 6.296875 -0.671875 L 5.6875 -6.890625 C 5.671875 -7.09375 5.671875 -7.125 5.5 -7.125 C 5.34375 -7.125 5.3125 -7.0625 5.25 -6.953125 Z M 2.96875 -2.609375 L 4.9375 -5.890625 L 5.25 -2.609375 Z M 2.96875 -2.609375 "/>
</g>
<g id="glyph-1-0">
<path d="M 3.8125 -0.984375 C 4.453125 -1.640625 4.703125 -2.578125 4.703125 -2.640625 C 4.703125 -2.734375 4.625 -2.734375 4.59375 -2.734375 C 4.5 -2.734375 4.5 -2.71875 4.453125 -2.5625 C 4.328125 -2.109375 4.09375 -1.671875 3.796875 -1.296875 C 3.796875 -1.40625 3.78125 -1.875 3.765625 -1.9375 C 3.65625 -2.625 3.140625 -3.078125 2.4375 -3.078125 C 1.421875 -3.078125 0.4375 -2.125 0.4375 -1.140625 C 0.4375 -0.5 0.90625 0.0625 1.703125 0.0625 C 2.34375 0.0625 2.921875 -0.21875 3.3125 -0.515625 C 3.484375 -0.015625 3.828125 0.0625 4.046875 0.0625 C 4.453125 0.0625 4.703125 -0.265625 4.703125 -0.421875 C 4.703125 -0.5 4.609375 -0.5 4.578125 -0.5 C 4.484375 -0.5 4.46875 -0.46875 4.453125 -0.4375 C 4.359375 -0.171875 4.140625 -0.125 4.0625 -0.125 C 3.96875 -0.125 3.84375 -0.125 3.8125 -0.984375 Z M 3.265625 -0.75 C 2.578125 -0.1875 2 -0.125 1.734375 -0.125 C 1.265625 -0.125 1.015625 -0.4375 1.015625 -0.90625 C 1.015625 -1.09375 1.109375 -1.859375 1.46875 -2.34375 C 1.796875 -2.765625 2.1875 -2.875 2.4375 -2.875 C 2.984375 -2.875 3.15625 -2.34375 3.203125 -1.90625 C 3.25 -1.609375 3.234375 -1.109375 3.265625 -0.75 Z M 3.265625 -0.75 "/>
</g>
<g id="glyph-1-1">
<path d="M 4.40625 -3.9375 C 4.40625 -4.5625 3.875 -4.90625 3.265625 -4.90625 C 2.3125 -4.90625 1.609375 -3.828125 1.4375 -3.125 L 0.34375 1.265625 C 0.328125 1.3125 0.390625 1.359375 0.4375 1.359375 C 0.5 1.359375 0.5625 1.34375 0.578125 1.296875 L 1.03125 -0.5625 C 1.1875 -0.234375 1.515625 0.0625 2.078125 0.0625 C 3.0625 0.0625 4.15625 -0.640625 4.15625 -1.703125 C 4.15625 -2.125 3.96875 -2.53125 3.609375 -2.765625 C 3.953125 -2.984375 4.40625 -3.375 4.40625 -3.9375 Z M 3.03125 -2.78125 C 2.921875 -2.75 2.875 -2.71875 2.671875 -2.71875 C 2.5625 -2.71875 2.390625 -2.734375 2.34375 -2.765625 C 2.421875 -2.796875 2.609375 -2.8125 2.671875 -2.8125 C 2.78125 -2.8125 2.9375 -2.796875 3.03125 -2.78125 Z M 3.953125 -4.0625 C 3.953125 -3.703125 3.765625 -3.15625 3.34375 -2.90625 C 3.203125 -2.953125 3.078125 -3 2.6875 -3 C 2.4375 -3 2.09375 -2.984375 2.09375 -2.734375 C 2.09375 -2.5625 2.3125 -2.53125 2.65625 -2.53125 C 2.90625 -2.53125 3.109375 -2.578125 3.328125 -2.640625 C 3.53125 -2.484375 3.640625 -2.203125 3.640625 -1.890625 C 3.640625 -0.890625 2.953125 -0.125 2.109375 -0.125 C 1.5625 -0.125 1.1875 -0.453125 1.1875 -1.015625 C 1.1875 -1.078125 1.1875 -1.15625 1.203125 -1.21875 L 1.671875 -3.0625 C 1.828125 -3.734375 2.453125 -4.71875 3.25 -4.71875 C 3.671875 -4.71875 3.953125 -4.5 3.953125 -4.0625 Z M 3.953125 -4.0625 "/>
</g>
<g id="glyph-1-2">
<path d="M 3.109375 -0.96875 C 3.078125 -1.375 2.84375 -3.078125 1.703125 -3.078125 C 1.296875 -3.078125 0.9375 -2.84375 0.75 -2.671875 C 0.328125 -2.28125 0.234375 -1.84375 0.234375 -1.8125 C 0.234375 -1.734375 0.328125 -1.734375 0.34375 -1.734375 C 0.4375 -1.734375 0.453125 -1.75 0.484375 -1.859375 C 0.625 -2.265625 1.140625 -2.515625 1.609375 -2.515625 C 2.734375 -2.515625 2.875 -1.390625 2.875 -0.6875 C 2.875 -0.328125 2.859375 -0.265625 2.828125 -0.1875 C 2.671875 0.34375 2.453125 1.109375 2.453125 1.328125 C 2.453125 1.40625 2.484375 1.484375 2.578125 1.484375 C 2.625 1.484375 2.703125 1.484375 2.8125 1.125 C 2.90625 0.859375 3.03125 0.34375 3.09375 -0.15625 C 3.109375 -0.40625 3.5 -1.34375 3.65625 -1.671875 C 3.75 -1.890625 3.890625 -2.21875 4.21875 -2.828125 C 4.25 -2.859375 4.265625 -2.890625 4.265625 -2.921875 C 4.265625 -3 4.171875 -3 4.140625 -3 C 4.125 -3 4.0625 -3 4.046875 -2.96875 C 3.953125 -2.828125 3.421875 -1.828125 3.109375 -0.96875 Z M 3.109375 -0.96875 "/>
</g>
</g>
</defs>
<path fill="none" stroke-width="0.79701" stroke-linecap="butt" stroke-linejoin="miter" stroke="rgb(0%, 0%, 0%)" stroke-opacity="1" stroke-miterlimit="10" d="M 10.025207 98.041146 L 11.991536 -33.72632 " transform="matrix(0.999245, 0, 0, -0.999245, 109.314394, 125.693678)"/>
<g fill="rgb(0%, 0%, 0%)" fill-opacity="1">
<use xlink:href="#glyph-0-0" x="112.93266" y="21.263593"/>
</g>
<g fill="rgb(0%, 0%, 0%)" fill-opacity="1">
<use xlink:href="#glyph-1-0" x="120.059274" y="22.757464"/>
</g>
<path fill="none" stroke-width="0.79701" stroke-linecap="butt" stroke-linejoin="miter" stroke="rgb(0%, 0%, 0%)" stroke-opacity="1" stroke-miterlimit="10" d="M -81.868401 -39.035016 L 57.91293 36.686223 " transform="matrix(0.999245, 0, 0, -0.999245, 109.314394, 125.693678)"/>
<g fill="rgb(0%, 0%, 0%)" fill-opacity="1">
<use xlink:href="#glyph-0-0" x="10.196295" y="165.415661"/>
</g>
<g fill="rgb(0%, 0%, 0%)" fill-opacity="1">
<use xlink:href="#glyph-1-1" x="17.32291" y="166.908533"/>
</g>
<path fill="none" stroke-width="0.79701" stroke-linecap="butt" stroke-linejoin="miter" stroke="rgb(0%, 0%, 0%)" stroke-opacity="1" stroke-miterlimit="10" d="M 107.942895 -39.035016 L -36.990763 36.686223 " transform="matrix(0.999245, 0, 0, -0.999245, 109.314394, 125.693678)"/>
<g fill="rgb(0%, 0%, 0%)" fill-opacity="1">
<use xlink:href="#glyph-0-0" x="221.937288" y="165.415661"/>
</g>
<g fill="rgb(0%, 0%, 0%)" fill-opacity="1">
<use xlink:href="#glyph-1-2" x="229.064902" y="166.908533"/>
</g>
<path fill-rule="nonzero" fill="rgb(0%, 0%, 0%)" fill-opacity="1" d="M 122.605469 114.246094 C 122.605469 113.160156 121.722656 112.277344 120.632812 112.277344 C 119.542969 112.277344 118.660156 113.160156 118.660156 114.246094 C 118.660156 115.335938 119.542969 116.21875 120.632812 116.21875 C 121.722656 116.21875 122.605469 115.335938 122.605469 114.246094 Z M 122.605469 114.246094 "/>
<g fill="rgb(0%, 0%, 0%)" fill-opacity="1">
<use xlink:href="#glyph-0-1" x="125.576106" y="109.430967"/>
</g>
<path fill-rule="nonzero" fill="rgb(0%, 0%, 0%)" fill-opacity="1" d="M 121.839844 39.019531 C 121.839844 37.730469 120.796875 36.6875 119.511719 36.6875 C 118.226562 36.6875 117.183594 37.730469 117.183594 39.019531 C 117.183594 40.304688 118.226562 41.347656 119.511719 41.347656 C 120.796875 41.347656 121.839844 40.304688 121.839844 39.019531 Z M 121.839844 39.019531 "/>
<g fill="rgb(0%, 0%, 0%)" fill-opacity="1">
<use xlink:href="#glyph-0-2" x="106.999144" y="35.502833"/>
</g>
</svg>
